#!OML:ASF H:\Male1\Project 1\Capture day 1\Session 1\Male1.ASF
:FULLY-SPECIFIED
:DEGREES
645
root -14.7428 14.0509 12.2863 -782.642 74.2554 -67.8343
lowerback 15.1006 0.631009 7.20536
upperback 7.31972 2.30591 3.53579
thorax -0.561777 1.4456 -0.694672
lowerneck -6.15926 10.634 16.9566
upperneck -1.73399 13.9273 -23.1623
head 3.52784 6.70003 -9.05582
rclavicle -1.09332e-014 -3.73715e-014
rhumerus -54.9479 9.87997 -86.6768
rradius 90.9989
rwrist -31.8988
rhand -39.7847 22.6364
rfingers 7.12502
rthumb -12.7602 -6.95365
lclavicle -1.09332e-014 -3.73715e-014
lhumerus -51.3376 -6.93683 89.5681
lradius 107.144
lwrist 21.9145
lhand -20.0228 3.30958
lfingers 7.12502
lthumb 6.31783 33.1954
rfemur -19.5269 0.478784 24.9506
rtibia 43.8838
rfoot -21.1864 -25.1666
rtoes -45.4526
lfemur -15.9199 -8.87934 -22.6353
ltibia 83.6099
lfoot -15.2087 7.84973
ltoes 6.00732
646
root -14.3213 14.0076 12.4415 -787.107 73.5941 -71.7109
lowerback 15.8093 0.854556 8.00671
upperback 7.42051 2.80942 3.60666
thorax -0.754924 1.72209 -1.15934
lowerneck -6.55663 10.4858 16.9454
upperneck -1.57923 13.6691 -22.8547
head 3.55662 6.54778 -8.96546
rclavicle -2.5842e-015 -3.57812e-015
rhumerus -50.9846 11.8006 -85.834
rradius 91.2975
rwrist -31.6106
rhand -39.6 21.9605
rfingers 7.12502
rthumb -12.5822 -7.64065
lclavicle -2.5842e-015 -3.57812e-015
lhumerus -53.0428 -5.81801 89.3799
lradius 103.535
lwrist 21.5125
lhand -22.4271 5.4379
lfingers 7.12502
lthumb 3.99639 35.3802
rfemur -16.3534 -1.0687 26.4413
rtibia 43.1586
rfoot -22.3649 -24.6973
rtoes -45.8039
lfemur -20.7969 -7.66746 -20.8499
ltibia 87.1457
lfoot -16.2155 7.5331
ltoes 5.28707
647
root -13.8882 13.9868 12.5777 -790.367 73.0233 -74.3476
lowerback 16.4962 1.12985 8.53031
upperback 7.51204 3.33999 3.5699
thorax -0.940655 2.00369 -1.59356
lowerneck -6.80869 10.3019 17.0331
upperneck -1.56079 13.3603 -22.6532
head 3.52934 6.38249 -8.94259
rclavicle -2.88238e-014 -5.4467e-014
rhumerus -47.3304 13.7261 -84.7861
rradius 92.0595
rwrist -31.393
rhand -39.3285 21.33
rfingers 7.12502
rthumb -12.3204 -8.287
lclavicle -2.88238e-014 -5.4467e-014
lhumerus -54.9797 -4.77216 88.9562
lradius 100.283
lwrist 21.8495
lhand -25.95 7.0028
lfingers 7.12502
lthumb 0.594024 36.9817
rfemur -12.7636 -1.88792 27.5549
rtibia 41.742
rfoot -23.1622 -24.5028
rtoes -46.0834
lfemur -25.4585 -6.3469 -19.6263
ltibia 89.3262
lfoot -17.1352 7.7703
ltoes 4.9316
648
root -13.4357 13.9938 12.6948 -793.568 72.5935 -76.822
lowerback 17.2197 1.38345 8.89743
upperback 7.57758 3.82616 3.47631
thorax -1.1727 2.25612 -2.00415
lowerneck -6.91361 10.0729 17.1921
upperneck -1.64889 12.995 -22.5424
head 3.4488 6.19999 -8.97728
rclavicle -5.04913e-014 0
rhumerus -44.2702 15.4909 -83.5911
rradius 93.3697
rwrist -31.1973
rhand -38.9633 20.9012
rfingers 7.12502
rthumb -11.9683 -8.73667
lclavicle -5.04913e-014 0
lhumerus -57.1847 -3.9635 88.4255
lradius 97.6222
lwrist 22.8656
lhand -29.2833 7.6679
lfingers 7.12502
lthumb -2.62527 37.6315
rfemur -8.58219 -2.05807 28.4521
rtibia 39.5329
rfoot -23.4798 -24.5626
rtoes -46.0121
lfemur -29.5688 -5.2246 -18.9268
ltibia 90.0265
lfoot -17.9432 8.27476
ltoes 4.93702
649
root -12.9584 14.0321 12.7903 -797.289 72.1689 -79.9003
lowerback 17.7802 1.58219 9.31098
upperback 7.57622 4.23571 3.41601
thorax -1.38815 2.46717 -2.39316
lowerneck -6.99244 9.80908 17.3314
upperneck -1.74162 12.5906 -22.4687
head 3.35651 5.99981 -9.02684
rclavicle -3.18055e-015 1.98785e-014
rhumerus -41.9779 16.9731 -82.2904
rradius 95.247
rwrist -30.968
rhand -38.5571 20.7359
rfingers 7.12502
rthumb -11.5766 -8.92434
lclavicle -3.18055e-015 1.98785e-014
lhumerus -59.58 -3.42498 87.9132
lradius 95.519
lwrist 23.913
lhand -32.2613 7.18967
lfingers 7.12502
lthumb -5.50102 37.0983
rfemur -4.02227 -1.73534 29.4039
rtibia 36.545
rfoot -22.9906 -24.8087
rtoes -45.6214
lfemur -33.1376 -4.4681 -18.5114
ltibia 89.2378
lfoot -18.6505 8.65059
ltoes 5.53488
650
root -12.4539 14.1037 12.8626 -801.621 71.6322 -83.8034
lowerback 18.0305 1.71977 9.87401
upperback 7.50164 4.5608 3.44027
thorax -1.5164 2.63683 -2.74893
lowerneck -7.15494 9.51496 17.3501
upperneck -1.76185 12.1532 -22.3602
head 3.28141 5.77802 -9.04327
rclavicle 1.19271e-014 7.15625e-015
rhumerus -40.4625 18.1239 -80.9599
rradius 97.5917
rwrist -30.6661
rhand -38.1297 20.8217
rfingers 7.12502
rthumb -11.1643 -8.86127
lclavicle 1.19271e-014 7.15625e-015
lhumerus -62.0483 -3.13004 87.5477
lradius 93.8962
lwrist 24.706
lhand -32.5326 6.80999
lfingers 7.12502
lthumb -5.76294 36.7116
rfemur 0.667809 -1.20475 30.517
rtibia 32.9243
rfoot -21.2481 -25.1102
rtoes -45.2582
lfemur -36.1263 -4.09956 -18.2183
ltibia 86.9716
lfoot -19.2227 8.56962
ltoes 6.36794
651
root -11.9235 14.205 12.9109 -806.278 70.9919 -88.2566
lowerback 17.9724 1.81737 10.5019
upperback 7.35705 4.81127 3.54864
thorax -1.56421 2.76802 -3.02231
lowerneck -7.42535 9.20192 17.1837
upperneck -1.67533 11.7017 -22.159
head 3.23348 5.54274 -8.99217
rclavicle 1.35174e-014 3.97569e-014
rhumerus -39.7169 18.9382 -79.6992
rradius 100.266
rwrist -30.3302
rhand -37.6373 21.1864
rfingers 7.12502
rthumb -10.6894 -8.52171
lclavicle 1.35174e-014 3.97569e-014
lhumerus -64.4615 -2.97136 87.4056
lradius 92.6041
lwrist 25.3626
lhand -32.2561 6.3539
lfingers 7.12502
lthumb -5.49596 36.2626
rfemur 5.21944 -0.806695 31.5922
rtibia 29.0122
rfoot -18.1221 -25.0287
rtoes -44.9364
lfemur -38.4232 -4.04084 -18.0865
ltibia 83.3056
lfoot -19.6529 8.02802
ltoes 6.71322
652
root -11.3713 14.3228 12.9363 -810.802 70.4045 -92.8467
lowerback 17.53 1.9168 10.9975
upperback 7.16936 4.98365 3.67186
thorax -1.47766 2.85911 -3.16933
lowerneck -7.83416 8.90499 16.8596
upperneck -1.46067 11.2842 -21.8891
head 3.23922 5.31529 -8.8794
rclavicle -4.13472e-014 1.74931e-014
rhumerus -39.6104 19.4922 -78.6184
rradius 103.029
rwrist -29.9204
rhand -36.962 21.835
rfingers 7.12502
rthumb -10.038 -7.90564
lclavicle -4.13472e-014 1.74931e-014
lhumerus -66.6524 -2.81016 87.4801
lradius 91.4308
lwrist 26.2329
lhand -31.8409 5.81061
lfingers 7.12502
lthumb -5.09511 35.7294
rfemur 9.19441 -0.656315 32.2781
rtibia 25.4024
rfoot -13.5995 -24.3011
rtoes -45.0171
lfemur -39.9859 -4.23557 -18.2747
ltibia 78.4084
lfoot -20.0109 7.0665
ltoes 6.29926
653
root -10.805 14.4411 12.9402 -814.858 69.8054 -97.2587
lowerback 16.7167 2.01236 11.4157
upperback 6.93868 5.07483 3.8027
thorax -1.25798 2.91025 -3.22714
lowerneck -8.3805 8.64615 16.3675
upperneck -1.12036 10.9326 -21.5326
head 3.30342 5.1118 -8.69476
rclavicle -2.98177e-014 -1.00983e-013
rhumerus -40.0118 19.9045 -77.8225
rradius 105.767
rwrist -29.453
rhand -36.1643 22.5624
rfingers 7.12502
rthumb -9.26835 -7.21384
lclavicle -2.98177e-014 -1.00983e-013
lhumerus -68.5145 -2.40773 87.6484
lradius 90.249
lwrist 27.5319
lhand -31.4568 5.1978
lfingers 7.12502
lthumb -4.72425 35.1251
rfemur 12.0413 -0.74644 32.5303
rtibia 23.0446
rfoot -8.22974 -22.6109
rtoes -45.2701
lfemur -40.8963 -4.64927 -18.628
ltibia 72.612
lfoot -20.3338 5.79647
ltoes 5.40476
654
root -10.2301 14.5463 12.9244 -818.2 69.2107 -101.154
lowerback 15.6263 2.11096 11.7777
upperback 6.69781 5.10543 3.90914
thorax -0.909308 2.93474 -3.24991
lowerneck -8.94275 8.43154 15.8626
upperneck -0.805047 10.6491 -21.2354
head 3.38336 4.9419 -8.52048
rclavicle -6.75868e-015 -3.81667e-014
rhumerus -40.7641 20.2745 -77.3775
rradius 108.285
rwrist -28.9855
rhand -35.2212 23.4971
rfingers 7.12502
rthumb -8.3583 -6.31753
lclavicle -6.75868e-015 -3.81667e-014
lhumerus -69.9815 -1.66598 87.7562
lradius 89.0726
lwrist 29.223
lhand -31.1538 4.71263
lfingers 7.12502
lthumb -4.43164 34.6463
rfemur 13.2929 -0.918491 32.3501
rtibia 23.0179
rfoot -3.53654 -19.9194
rtoes -44.9191
lfemur -41.1609 -5.26211 -19.0487
ltibia 66.3131
lfoot -20.5215 4.62182
ltoes 4.31963
655
root -9.65489 14.6244 12.8942 -820.951 68.7884 -104.471
lowerback 14.4932 2.20599 11.9338
upperback 6.48834 5.07953 3.94967
thorax -0.520765 2.93014 -3.21761
lowerneck -9.51418 8.26532 15.3799
upperneck -0.508458 10.4353 -20.9837
head 3.47968 4.806 -8.35808
rclavicle 7.95139e-016 -7.95139e-016
rhumerus -41.7651 20.6529 -77.3067
rradius 110.516
rwrist -28.4829
rhand -34.2204 24.4828
rfingers 7.12502
rthumb -7.39234 -5.36805
lclavicle 7.95139e-016 -7.95139e-016
lhumerus -71.0231 -0.553154 87.6873
lradius 87.8674
lwrist 30.6708
lhand -30.744 4.45887
lfingers 7.12502
lthumb -4.03592 34.4004
rfemur 12.9482 -1.0242 31.6772
rtibia 25.7403
rfoot -0.429846 -16.8436
rtoes -43.8762
lfemur -40.7314 -6.15341 -19.5865
ltibia 59.9588
lfoot -20.3617 3.86632
ltoes 3.61139
656
root -9.08554 14.6654 12.8558 -823.382 68.5157 -107.311
lowerback 13.5205 2.24918 11.9153
upperback 6.3425 4.979 3.92961
thorax -0.167738 2.88674 -3.15517
lowerneck -10.0246 8.14988 14.9397
upperneck -0.285261 10.2897 -20.7531
head 3.56252 4.70828 -8.20551
rclavicle 8.18993e-014 3.4191e-014
rhumerus -42.9134 21.1308 -77.6066
rradius 112.405
rwrist -27.9927
rhand -33.2168 25.3796
rfingers 7.12502
rthumb -6.42354 -4.50299
lclavicle 8.18993e-014 3.4191e-014
lhumerus -71.6052 0.893954 87.3945
lradius 86.6699
lwrist 31.4294
lhand -30.2452 4.5678
lfingers 7.12502
lthumb -3.55426 34.5179
rfemur 11.4533 -0.975583 30.6768
rtibia 30.6853
rfoot 0.734079 -14.3889
rtoes -41.8479
lfemur -39.6028 -7.38329 -20.1211
ltibia 54.0242
lfoot -19.6853 3.53398
ltoes 4.20637
657
root -8.52599 14.666 12.8148 -825.908 68.4182 -109.952
lowerback 12.8932 2.21821 11.6839
upperback 6.27776 4.80474 3.82986
thorax 0.0647366 2.80127 -3.0763
lowerneck -10.4476 8.06647 14.5865
upperneck -0.117725 10.1786 -20.5004
head 3.62465 4.63332 -8.06018
rclavicle -4.81059e-014 -2.70347e-014
rhumerus -44.2153 21.6711 -78.274
rradius 113.901
rwrist -27.5309
rhand -32.3298 26.2928
rfingers 7.12502
rthumb -5.56713 -3.61407
lclavicle -4.81059e-014 -2.70347e-014
lhumerus -71.7093 2.4788 86.9028
lradius 85.5578
lwrist 31.4233
lhand -29.7386 4.90111
lfingers 7.12502
lthumb -3.06497 34.8588
rfemur 9.33482 -0.826111 29.3995
rtibia 37.0486
rfoot 0.352014 -13.2446
rtoes -39.4926
lfemur -37.7831 -8.86883 -20.7371
ltibia 48.9192
lfoot -18.4081 3.42206
ltoes 7.42235
